<?xml version="1.0" encoding="UTF-8" standalone="no"?>
<svg
   xmlns:dc="http://purl.org/dc/elements/1.1/"
   xmlns:cc="http://creativecommons.org/ns#"
   xmlns:rdf="http://www.w3.org/1999/02/22-rdf-syntax-ns#"
   xmlns:svg="http://www.w3.org/2000/svg"
   xmlns="http://www.w3.org/2000/svg"
   xmlns:sodipodi="http://sodipodi.sourceforge.net/DTD/sodipodi-0.dtd"
   xmlns:inkscape="http://www.inkscape.org/namespaces/inkscape"
   fill="#000000"
   height="24"
   viewBox="0 0 24 24"
   width="24"
   id="svg2"
   version="1.1"
   inkscape:version="0.91 r13725"
   sodipodi:docname="changes.svg">
  <metadata
     id="metadata12">
    <rdf:RDF>
      <cc:Work
         rdf:about="">
        <dc:format>image/svg+xml</dc:format>
        <dc:type
           rdf:resource="http://purl.org/dc/dcmitype/StillImage" />
      </cc:Work>
    </rdf:RDF>
  </metadata>
  <defs
     id="defs10" />
  <sodipodi:namedview
     pagecolor="#ffffff"
     bordercolor="#666666"
     borderopacity="1"
     objecttolerance="10"
     gridtolerance="10"
     guidetolerance="10"
     inkscape:pageopacity="0"
     inkscape:pageshadow="2"
     inkscape:window-width="640"
     inkscape:window-height="480"
     id="namedview8"
     showgrid="false"
     inkscape:zoom="9.8333333"
     inkscape:cx="12"
     inkscape:cy="12"
     inkscape:window-x="10"
     inkscape:window-y="34"
     inkscape:window-maximized="0"
     inkscape:current-layer="svg2" />
  <path
     d="M12 7.77L18.39 18H5.61L12 7.77M12 4L2 20h20L12 4z"
     id="path4" />
  <path
     d="M0 0h24v24H0V0z"
     fill="none"
     id="path6" />
  <path
     style="fill:#666666;stroke:none;stroke-width:1px;stroke-linecap:butt;stroke-linejoin:miter;stroke-opacity:1"
     d="m 2.1152542,19.951761 c 0,-0.06526 9.6775098,-15.5543952 9.8030058,-15.6900002 0.08395,-0.090713 1.360494,1.8769429 5.063651,7.8050852 l 4.951402,7.926374 -9.909029,0 c -5.4499664,0 -9.9090298,-0.01866 -9.9090298,-0.04146 z M 18.343708,17.892951 C 18.229947,17.596497 12.070164,7.7898305 11.997715,7.7898305 c -0.06191,0 -6.3234367,9.9454015 -6.4078845,10.1778715 -0.020342,0.056 2.5359991,0.09332 6.3922365,0.09332 5.934147,0 6.421196,-0.01287 6.361641,-0.168066 z"
     id="path3342"
     inkscape:connector-curvature="0" />
</svg>
